<?xml version="1.0" encoding="UTF-8"?>
<svg id="Layer_1" data-name="Layer 1" xmlns="http://www.w3.org/2000/svg" viewBox="0 0 885.04 457.48">
  <defs>
    <style>
      .cls-1 {
        opacity: .51;
      }

      .cls-1, .cls-2, .cls-3, .cls-4 {
        fill: #48bb78;
      }

      .cls-2 {
        opacity: .8;
      }

      .cls-3 {
        opacity: .3;
      }

      .cls-4 {
        opacity: .65;
      }
    </style>
  </defs>
  <path class="cls-1" d="m0,254.62c33.81,44.5,81.26,79.3,138.64,97.29,112.28,35.2,230.11-4.16,300.12-90.18-33.81-44.5-81.26-79.3-138.64-97.29C187.84,129.24,70.01,168.6,0,254.62Z"/>
  <path class="cls-2" d="m369.77,1.91c-20.59,27.35-33.19,61.12-34.23,97.95-2.02,72.06,40.83,134.95,103.21,161.87,20.59-27.35,33.19-61.12,34.23-97.95,2.02-72.06-40.83-134.95-103.21-161.87Z"/>
  <path class="cls-2" d="m267.08,19.43c-10.76,36.25-10.77,76.08,2.37,114.59,25.71,75.36,94.34,123.92,169.29,127.72,10.76-36.25,10.77-76.08-2.37-114.59-25.71-75.36-94.34-123.92-169.29-127.72Z"/>
  <path class="cls-4" d="m122.79,81.53c6.81,45.82,27.41,90.04,61.93,126,67.54,70.37,168.86,88.77,254.04,54.2-6.81-45.82-27.41-90.04-61.93-126-67.54-70.37-168.86-88.77-254.04-54.2Z"/>
  <path class="cls-1" d="m885.04,252.71c-33.81,44.5-81.26,79.3-138.64,97.29-112.28,35.2-230.11-4.16-300.12-90.18,33.81-44.5,81.26-79.3,138.64-97.29,112.28-35.2,230.11,4.16,300.12,90.18Z"/>
  <path class="cls-2" d="m515.27,0c20.59,27.35,33.19,61.12,34.23,97.95,2.02,72.06-40.83,134.95-103.21,161.87-20.59-27.35-33.19-61.12-34.23-97.95-2.02-72.06,40.83-134.95,103.21-161.87Z"/>
  <path class="cls-2" d="m617.96,17.52c10.76,36.25,10.77,76.08-2.37,114.59-25.71,75.36-94.34,123.92-169.29,127.72-10.76-36.25-10.77-76.08,2.37-114.59,25.71-75.36,94.34-123.92,169.29-127.72Z"/>
  <path class="cls-4" d="m762.25,79.62c-6.81,45.82-27.41,90.04-61.93,126-67.54,70.37-168.86,88.77-254.04,54.2,6.81-45.82,27.41-90.04,61.93-126,67.54-70.37,168.86-88.77,254.04-54.2Z"/>
  <path class="cls-3" d="m122.79,438.62c6.81-45.82,27.41-90.04,61.93-126,67.54-70.37,168.86-88.77,254.04-54.2-6.81,45.82-27.41,90.04-61.93,126-67.54,70.37-168.86,88.77-254.04,54.2Z"/>
  <path class="cls-3" d="m762.25,440.52c-6.81-45.82-27.41-90.04-61.93-126-67.54-70.37-168.86-88.77-254.04-54.2,6.81,45.82,27.41,90.04,61.93,126,67.54,70.37,168.86,88.77,254.04,54.2Z"/>
</svg>